{"title":"Adventure.Time.S07E22.Scamps.HDTV.x264-W4F[rartv]","uid":13275567,"size":48239250,"categoryP":"video","categoryS":"tv_shows","magnet":"?xt=urn:btih:7afd511e6d357467d20e8e05ecd2138e8d5d8cc4&amp;dn=Adventure.Time.S07E22.Scamps.HDTV.x264-W4F%5Brartv%5D&amp;tr=udp%3A%2F%2Ftracker.leechers-paradise.org%3A6969&amp;tr=udp%3A%2F%2Fzer0day.ch%3A1337&amp;tr=udp%3A%2F%2Fopen.demonii.com%3A1337&amp;tr=udp%3A%2F%2Ftracker.coppersurfer.tk%3A6969&amp;tr=udp%3A%2F%2Fexodus.desync.com%3A6969","seeders":18,"leechers":0,"uploader":"Dyggy42","files":3,"time":1453433749,"description":"-W4F Releasing TV since 2002-\r\n\r\nProudly Presents\r\n\r\nAdventure.Time.S07E22.Scamps.HDTV.x264-W4F\r\n\r\nRELEASE iNFO\r\n\r\nRelease Date    2016.01.21\r\nAir Date        2016.01.21\r\nGenre           Animation\r\n\r\nEPiSODE iNFO\r\n\r\nEnjoy!\r\n\r\nVideo\r\nID                                       : 1\r\nFormat                                   : AVC\r\nFormat/Info                              : Advanced Video Codec\r\nFormat profile                           :   \r\nFormat settings, CABAC                   : Yes\r\nFormat settings, ReFrames                : 10 frames\r\nCodec ID                                 : avc1\r\nCodec ID/Info                            : Advanced Video Coding\r\nDuration                                 : 11mn 12s\r\nBit rate                                 : 451 Kbps\r\nMaximum bit rate                         : 4 920 Kbps\r\nWidth                                    : 720 pixels\r\nHeight                                   : 404 pixels\r\nDisplay aspect ratio                     : 16:9\r\nFrame rate mode                          : Constant\r\nFrame rate                               : 23.976 (24000/1001) fps\r\nColor space                              : YUV\r\nChroma subsampling                       : 4:2:0\r\nBit depth                                : 8 bits\r\nScan type                                : Progressive\r\nBits/(Pixel*Frame)                       : 0.065\r\nStream size                              : 36.1 MiB (79%)\r\nWriting library                          : x264 core 148 r2638 7599210\r\nEncoding settings                        : cabac=1 / ref=10 / deblock=1:1:1 / analyse=0x3:0x113 / me=umh / subme=8 / psy=1 / psy_rd=0.40:0.00 / mixed_ref=1 / me_range=16 / chroma_me=1 / trellis=1 / 8x8dct=1 / cqm=0 / deadzone=21,11 / fast_pskip=1 / chroma_qp_offset=-2 / threads=12 / lookahead_threads=3 / sliced_threads=0 / nr=0 / decimate=1 / interlaced=0 / bluray_compat=0 / constrained_intra=0 / bframes=5 / b_pyramid=2 / b_adapt=2 / b_bias=0 / direct=3 / weightb=1 / open_gop=0 / weightp=2 / keyint=250 / keyint_min=25 / scenecut=40 / intra_refresh=0 / rc_lookahead=50 / rc=crf / mbtree=1 / crf=19.0 / qcomp=0.60 / qpmin=0 / qpmax=69 / qpstep=4 / ip_ratio=1.40 / aq=1:0.60\r\nEncoded date                             : UTC 2016-01-22 01:38:41\r\nTagged date                              : UTC 2016-01-22 01:38:44\r\nColor range                              : Limited\r\nMatrix coefficients                      : BT.709\r\n\r\nAudio\r\nID                                       : 2\r\nFormat                                   : AAC\r\nFormat/Info                              : Advanced Audio Codec\r\nFormat profile                           : LC\r\nCodec ID                                 : 40\r\nDuration                                 : 11mn 12s\r\nBit rate mode                            : Variable\r\nBit rate                                 : 119 Kbps\r\nMaximum bit rate                         : 153 Kbps\r\nChannel(s)                               : 2 channels\r\nChannel positions                        : Front: L R\r\nSampling rate                            : 48.0 KHz\r\nFrame rate                               : 46.875 fps (1024 spf)\r\nCompression mode                         : Lossy\r\nStream size                              : 9.53 MiB (21%)\r\nLanguage                                 : English\r\nEncoded date                             : UTC 2016-01-22 01:38:43\r\nTagged date                              : UTC 2016-01-22 01:38:44\r\n\r\nText\r\nID                                       : 3\r\nFormat                                   : Timed Text\r\nCodec ID                                 : tx3g\r\nDuration                                 : 11mn 13s\r\nBit rate mode                            : Variable\r\nBit rate                                 : 157 bps\r\nStream size                              : 12.9 KiB (0%)\r\nLanguage                                 : English\r\nForced                                   : No\r\nEncoded date                             : UTC 2016-01-22 01:38:43\r\nTagged date                              : UTC 2016-01-22 01:38:44","torrent":{"xt":"urn:btih:7afd511e6d357467d20e8e05ecd2138e8d5d8cc4","amp;dn":"Adventure.Time.S07E22.Scamps.HDTV.x264-W4F%5Brartv%5D","amp;tr":["udp%3A%2F%2Ftracker.leechers-paradise.org%3A6969","udp%3A%2F%2Fzer0day.ch%3A1337","udp%3A%2F%2Fopen.demonii.com%3A1337","udp%3A%2F%2Ftracker.coppersurfer.tk%3A6969","udp%3A%2F%2Fexodus.desync.com%3A6969"],"infoHash":"7afd511e6d357467d20e8e05ecd2138e8d5d8cc4","infoHashBuffer":{"type":"Buffer","data":[122,253,81,30,109,53,116,103,210,14,142,5,236,210,19,142,141,93,140,196]},"announce":[],"urlList":[]}}